<?xml version="1.0" standalone="no"?>
<!DOCTYPE svg PUBLIC "-//W3C//DTD SVG 20010904//EN"
 "http://www.w3.org/TR/2001/REC-SVG-20010904/DTD/svg10.dtd">
<svg version="1.0" xmlns="http://www.w3.org/2000/svg"
 width="512.000000pt" height="512.000000pt" viewBox="0 0 512.000000 512.000000"
 preserveAspectRatio="xMidYMid meet">
<metadata>
Created by potrace 1.14, written by Peter Selinger 2001-2017
</metadata>
<g transform="translate(0.000000,512.000000) scale(0.100000,-0.100000)"
fill="#000000" stroke="none">
<path d="M0 4655 c0 -396 2 -465 14 -465 8 0 22 -8 32 -17 13 -13 34 -18 78
-18 37 -1 75 -8 95 -18 23 -11 58 -17 107 -17 67 0 73 -2 77 -22 l4 -23 8 23
c9 28 33 28 76 -1 46 -31 160 -60 191 -48 37 14 150 -6 168 -29 12 -15 29 -20
77 -21 34 -1 60 -5 58 -10 -3 -4 -1 -10 4 -13 5 -4 13 8 16 26 4 18 12 44 18
58 10 26 11 28 23 70 7 24 6 23 -19 -6 -15 -18 -27 -39 -27 -47 0 -10 -8 -15
-20 -14 -23 2 -22 28 8 127 11 36 23 79 27 95 9 40 70 140 117 190 22 25 34
46 29 53 -9 15 -81 -53 -81 -77 -1 -14 -2 -14 -10 1 -19 32 114 239 142 222 6
-4 8 -2 5 3 -10 15 59 73 86 73 12 0 29 5 37 11 12 8 9 9 -10 5 -14 -3 -7 2
16 13 22 10 64 24 93 30 29 6 61 15 71 21 10 5 33 10 51 12 19 1 43 8 54 15
11 7 30 13 43 13 13 0 20 4 17 10 -3 6 1 7 9 4 9 -3 16 -1 16 6 0 7 13 10 34
9 19 -2 38 0 42 4 12 12 104 8 104 -4 0 -11 50 -9 120 3 8 2 16 -1 17 -7 2 -5
-7 -10 -20 -10 -60 -1 -176 -18 -171 -26 3 -5 16 -9 30 -9 13 0 24 -5 24 -11
0 -6 -10 -9 -22 -8 -13 1 -52 -2 -88 -6 -56 -7 -61 -9 -40 -18 25 -10 25 -10
-11 -21 -20 -6 -34 -16 -32 -22 2 -7 -8 -9 -28 -6 -22 3 -30 1 -25 -7 5 -7 -1
-11 -16 -11 -13 0 -36 -7 -52 -15 -15 -8 -35 -15 -42 -15 -20 0 -163 -73 -168
-86 -2 -6 1 -11 7 -11 31 1 48 -4 43 -12 -3 -4 45 -13 106 -19 61 -7 113 -14
116 -17 13 -13 -16 -19 -106 -20 -100 -2 -148 -14 -158 -39 -3 -8 -18 -18 -34
-21 -16 -3 -31 -13 -34 -21 -3 -8 -13 -14 -21 -14 -9 0 -13 -5 -10 -10 4 -6
-4 -19 -17 -30 -13 -11 -17 -19 -10 -20 23 0 12 -20 -12 -20 -24 0 -50 -21
-41 -33 3 -4 2 -5 -2 -2 -12 9 -32 -30 -33 -64 0 -28 2 -31 14 -22 17 15 29 0
19 -25 -4 -12 -3 -15 6 -10 9 6 10 1 5 -18 -3 -15 -3 -47 1 -73 6 -41 9 -45
19 -30 7 9 16 14 20 10 4 -4 4 1 0 12 -4 11 -4 17 1 13 4 -4 28 28 53 72 49
88 134 187 185 218 17 11 61 30 97 42 60 19 92 22 395 26 321 4 416 -1 505
-28 19 -6 37 -14 40 -18 3 -4 30 -23 61 -42 58 -37 111 -95 149 -163 23 -39
25 -47 35 -114 3 -19 11 -47 19 -62 8 -16 11 -31 6 -34 -5 -3 -2 -20 7 -38 9
-17 20 -40 26 -51 5 -11 5 -22 -2 -29 -13 -13 58 -119 76 -113 6 3 19 -5 30
-16 18 -20 18 -21 -7 -13 l-25 7 27 -28 c14 -16 28 -38 30 -49 2 -13 10 -19
23 -17 16 2 17 1 6 -7 -12 -8 -10 -16 13 -46 16 -20 26 -39 23 -41 -7 -7 -67
52 -67 66 0 5 -4 10 -10 10 -15 0 -12 -10 15 -46 14 -18 25 -35 25 -38 0 -3
11 -21 24 -41 15 -22 26 -31 30 -23 3 7 4 -6 3 -29 -2 -42 15 -62 21 -24 4 28
52 63 77 59 19 -4 20 1 21 66 1 39 5 108 9 152 5 57 4 83 -4 88 -6 4 -11 17
-11 28 0 12 3 18 7 14 4 -4 13 8 19 26 l12 33 2 -35 c1 -19 4 -28 7 -19 4 15
9 16 56 3 29 -8 67 -14 85 -14 17 0 32 -4 32 -10 0 -5 18 -10 39 -10 22 0 41
-5 43 -11 2 -7 59 -13 161 -17 86 -2 157 -9 157 -13 0 -5 18 -9 40 -9 22 0 40
-5 40 -11 0 -5 5 -7 10 -4 6 4 8 15 5 26 -4 11 -2 19 4 19 6 0 11 -4 11 -10 0
-5 13 -8 30 -7 22 1 30 7 31 22 0 16 4 14 14 -10 10 -22 14 -25 15 -11 0 26
15 10 15 -16 0 -14 8 -22 23 -25 13 -1 30 -10 38 -18 10 -10 35 -15 70 -15 51
0 60 -5 55 -32 -1 -9 -1 -9 43 -13 21 -1 30 3 34 17 4 17 14 19 101 17 53 -1
106 1 118 5 14 5 23 3 23 -3 0 -6 18 -11 40 -11 22 0 40 5 40 10 0 6 47 10
120 10 l120 0 0 34 0 33 61 7 c34 3 88 6 120 6 57 0 59 -1 60 -27 0 -16 3 -22
6 -15 3 7 16 17 29 22 13 6 29 21 34 35 6 16 10 270 10 661 l0 634 -2560 0
-2560 0 0 -465z m2010 265 c-8 -5 -19 -10 -25 -10 -5 0 -3 5 5 10 8 5 20 10
25 10 6 0 3 -5 -5 -10z m-946 -31 c-3 -5 -10 -7 -15 -3 -5 3 -7 10 -3 15 3 5
10 7 15 3 5 -3 7 -10 3 -15z m1295 -33 c-11 -9 -69 -15 -64 -6 3 6 20 10 37
10 17 0 29 -2 27 -4z m-91 -66 c-1 -18 4 -23 11 -12 6 10 20 6 62 -19 30 -17
56 -35 59 -39 3 -4 26 -6 53 -6 32 1 47 -2 47 -11 0 -7 6 -13 13 -13 13 0 67
-56 67 -69 0 -4 -5 -12 -11 -18 -8 -8 -19 -2 -40 18 -17 16 -34 27 -40 24 -5
-4 -16 1 -25 10 -13 12 -14 19 -4 30 7 8 8 15 4 15 -5 0 -15 -9 -22 -21 -12
-19 -15 -19 -30 -6 -9 8 -31 18 -48 21 -17 4 -60 28 -96 55 -65 47 -65 47 -33
47 18 -1 33 -3 33 -6z m362 -150 c0 -5 -2 -10 -4 -10 -3 0 -8 5 -11 10 -3 6
-1 10 4 10 6 0 11 -4 11 -10z m20 -24 c0 -3 -4 -8 -10 -11 -5 -3 -10 -1 -10 4
0 6 5 11 10 11 6 0 10 -2 10 -4z m-50 -26 c0 -5 -2 -10 -4 -10 -3 0 -8 5 -11
10 -3 6 -1 10 4 10 6 0 11 -4 11 -10z m-2157 -203 c-4 -6 0 -8 10 -4 14 5 16
0 13 -35 -3 -35 -7 -42 -27 -45 -13 -1 -32 4 -42 11 -15 12 -16 18 -6 42 7 16
12 32 11 35 -1 4 10 7 23 7 15 0 22 -5 18 -11z m3662 -33 c18 -12 25 -25 25
-49 0 -44 -21 -61 -58 -46 -32 14 -36 37 -13 84 17 32 15 31 46 11z m-3135
-344 c0 -5 -2 -10 -4 -10 -3 0 -8 5 -11 10 -3 6 -1 10 4 10 6 0 11 -4 11 -10z
m2207 -62 c-3 -8 -6 -5 -6 6 -1 11 2 17 5 13 3 -3 4 -12 1 -19z"/>
<path d="M1838 4893 c7 -3 16 -2 19 1 4 3 -2 6 -13 5 -11 0 -14 -3 -6 -6z"/>
<path d="M1708 4853 c6 -2 18 -2 25 0 6 3 1 5 -13 5 -14 0 -19 -2 -12 -5z"/>
<path d="M1548 4813 c7 -3 16 -2 19 1 4 3 -2 6 -13 5 -11 0 -14 -3 -6 -6z"/>
<path d="M1368 4763 c6 -2 18 -2 25 0 6 3 1 5 -13 5 -14 0 -19 -2 -12 -5z"/>
<path d="M1293 4704 c-18 -9 -30 -21 -26 -27 3 -6 1 -7 -6 -3 -6 4 -25 -4 -42
-18 -17 -14 -35 -26 -41 -26 -6 0 -9 -3 -6 -6 4 -3 21 3 40 13 18 10 38 18 43
18 6 0 16 4 23 9 7 4 24 5 38 2 14 -4 24 -2 24 4 0 5 -8 11 -17 11 -10 1 -2 5
17 9 l35 7 -30 2 c-26 2 -27 4 -10 11 13 6 15 9 5 9 -8 0 -30 -7 -47 -15z"/>
<path d="M1368 4713 c7 -3 16 -2 19 1 4 3 -2 6 -13 5 -11 0 -14 -3 -6 -6z"/>
<path d="M1255 4630 c-3 -5 -2 -10 4 -10 5 0 13 5 16 10 3 6 2 10 -4 10 -5 0
-13 -4 -16 -10z"/>
<path d="M1320 4583 c-8 -3 -17 -9 -20 -13 -3 -4 -14 -12 -25 -19 -18 -11 -18
-11 5 -5 14 3 43 15 65 25 34 15 36 18 15 18 -14 0 -32 -3 -40 -6z"/>
<path d="M1214 4564 c-18 -14 -18 -15 4 -4 12 6 22 13 22 15 0 8 -5 6 -26 -11z"/>
<path d="M1238 4473 c-16 -8 -28 -18 -28 -24 0 -15 10 -11 42 16 33 28 28 31
-14 8z"/>
<path d="M1169 4363 l-24 -28 28 24 c25 23 32 31 24 31 -2 0 -14 -12 -28 -27z"/>
<path d="M4320 3690 c0 -5 18 -10 40 -10 22 0 40 5 40 10 0 6 -18 10 -40 10
-22 0 -40 -4 -40 -10z"/>
<path d="M2057 3648 c-26 -17 -47 -34 -47 -38 0 -4 -9 -10 -20 -13 -11 -3 -24
-16 -29 -30 -5 -14 -15 -27 -22 -29 -17 -6 -22 -98 -5 -98 9 0 15 -17 18 -53
4 -44 10 -59 38 -85 18 -18 41 -32 51 -32 9 0 59 -40 110 -90 50 -49 99 -90
108 -90 9 0 29 7 45 15 15 8 37 15 47 15 12 0 16 5 13 14 -3 8 2 28 11 45 8
17 13 31 10 31 -4 0 1 7 10 16 20 21 15 37 -16 45 -13 4 -19 7 -12 8 6 1 9 10
5 23 -3 14 -1 19 6 14 6 -3 29 0 50 7 22 8 55 12 73 10 19 -2 44 -1 57 2 25 6
30 33 7 41 -8 4 -12 10 -9 15 3 5 -3 6 -12 2 -12 -4 -15 -3 -10 5 5 8 1 10
-10 5 -13 -5 -15 -3 -9 7 5 8 4 11 -2 7 -6 -4 -14 0 -17 9 -4 9 -9 14 -13 10
-3 -3 -11 4 -17 16 -6 12 -22 25 -36 28 l-25 6 22 12 c15 8 20 18 17 30 -5 13
-4 14 4 3 11 -15 47 -7 38 8 -3 4 15 7 39 5 25 -3 45 -1 45 3 0 15 -71 70
-122 95 -47 23 -69 26 -199 31 l-146 5 -46 -30z m458 -266 c-3 -3 -11 0 -18 7
-9 10 -8 11 6 5 10 -3 15 -9 12 -12z m-101 -18 c8 -21 8 -21 -14 -27 -14 -4
-20 0 -20 12 0 32 24 42 34 15z m-64 -74 c-20 -13 -33 -13 -25 0 3 6 14 10 23
10 15 0 15 -2 2 -10z"/>
<path d="M1490 3571 c-73 -24 -160 -71 -160 -86 0 -20 37 -47 92 -66 29 -10
44 -18 33 -18 -17 -1 -17 -3 -5 -11 12 -8 11 -10 -6 -10 -26 0 -76 -24 -97
-47 -25 -28 -39 -73 -27 -88 12 -15 70 -7 70 9 0 7 11 23 25 36 l25 23 0 -25
c0 -33 39 -68 76 -68 16 0 35 -4 43 -9 11 -7 6 -13 -21 -24 -64 -27 -55 -37
31 -32 57 2 85 8 99 21 12 10 19 21 16 26 -3 4 0 8 6 8 7 0 9 8 5 19 -4 12 0
21 12 25 47 18 63 32 63 55 0 28 -65 165 -94 199 -16 18 -119 83 -128 81 -2 0
-28 -8 -58 -18z m103 -348 c-7 -2 -19 -2 -25 0 -7 3 -2 5 12 5 14 0 19 -2 13
-5z"/>
<path d="M2951 3564 c0 -11 3 -14 6 -6 3 7 2 16 -1 19 -3 4 -6 -2 -5 -13z"/>
<path d="M1827 3465 c-4 -8 -2 -17 3 -20 6 -4 10 3 10 14 0 25 -6 27 -13 6z"/>
<path d="M1901 3456 c-8 -10 -8 -16 3 -25 11 -10 14 -7 12 14 -1 29 0 29 -15
11z"/>
<path d="M3106 3454 c-9 -8 -17 -21 -17 -27 -1 -7 -3 -27 -5 -45 -3 -23 3 -44
20 -69 23 -34 24 -34 29 -12 4 24 4 24 6 -1 2 -33 40 -150 40 -125 1 33 -27
259 -34 278 -9 21 -19 22 -39 1z"/>
<path d="M1857 3426 c-3 -8 -2 -18 4 -22 16 -9 22 2 11 21 -8 15 -10 16 -15 1z"/>
<path d="M2970 3396 c0 -9 5 -16 10 -16 6 0 10 4 10 9 0 6 -4 13 -10 16 -5 3
-10 -1 -10 -9z"/>
<path d="M3000 3243 c-6 -15 -13 -34 -15 -41 -3 -7 2 -38 10 -68 13 -49 12
-61 -1 -101 -12 -36 -13 -47 -3 -53 18 -12 31 -4 58 35 13 19 32 35 41 35 18
0 50 63 50 97 0 32 -35 92 -53 93 -10 0 -31 7 -48 15 -29 15 -29 15 -39 -12z"/>
<path d="M3110 3031 c-12 -24 -13 -34 -1 -27 9 6 22 46 15 46 -2 0 -8 -9 -14
-19z"/>
<path d="M2126 2944 c4 -10 10 -23 14 -29 15 -21 21 -68 10 -75 -13 -8 -92 8
-100 20 -9 13 -74 43 -109 51 -21 5 -50 2 -77 -6 -52 -16 -50 -15 -70 -15 -8
0 -13 -4 -10 -8 3 -5 -6 -15 -19 -22 -14 -7 -25 -17 -25 -22 0 -4 -6 -8 -14
-8 -35 0 -24 -67 16 -102 12 -10 27 -18 34 -18 18 0 27 17 12 23 -10 4 -10 7
0 18 11 12 14 12 22 -1 5 -8 10 -11 10 -6 0 5 6 3 14 -3 8 -7 16 -44 20 -97 4
-47 10 -92 13 -100 6 -17 50 -19 55 -3 6 17 167 18 200 1 15 -7 32 -11 38 -7
5 3 10 1 10 -4 0 -6 7 -11 15 -11 8 0 15 -4 15 -10 0 -5 -2 -10 -5 -10 -11 0
-145 39 -154 45 -6 3 -31 -4 -56 -16 -34 -16 -56 -20 -85 -15 -48 7 -93 -9
-150 -55 -30 -24 -43 -29 -53 -21 -26 22 -107 -4 -91 -29 3 -5 0 -9 -5 -9 -11
0 -7 -88 5 -99 6 -6 49 39 56 59 8 24 165 57 223 46 41 -8 45 -27 12 -59 -13
-12 -21 -30 -19 -40 2 -10 -1 -24 -7 -31 -6 -7 -8 -16 -4 -20 8 -7 9 -11 11
-52 2 -17 11 -23 43 -28 22 -4 51 -17 64 -30 18 -18 27 -21 41 -13 17 10 38
14 84 18 8 1 23 -1 33 -6 13 -5 17 -2 17 15 0 16 4 20 16 16 9 -3 17 -6 20 -6
2 0 -1 -11 -7 -24 -13 -27 -48 -46 -86 -46 -19 0 -24 -4 -19 -16 9 -23 -3 -37
-19 -24 -9 8 -17 7 -28 -5 -19 -18 -37 -20 -37 -2 -1 6 -8 -1 -17 -18 -9 -16
-19 -32 -22 -35 -15 -12 -31 -52 -31 -77 -1 -28 -20 -63 -35 -63 -4 0 -5 7 -2
15 4 8 2 17 -3 20 -6 4 -10 1 -10 -4 0 -6 -7 -11 -15 -11 -8 0 -15 -8 -15 -17
0 -10 -4 -25 -10 -33 -8 -12 -12 -12 -37 0 -15 8 -32 21 -36 28 -6 10 -12 10
-22 2 -19 -16 31 -64 136 -132 47 -31 108 -77 135 -102 26 -25 52 -46 57 -46
4 0 5 -5 2 -10 -4 -6 -3 -9 2 -8 10 3 96 -42 104 -54 3 -5 25 -12 47 -15 23
-3 39 -9 37 -13 -5 -9 44 -19 106 -22 69 -4 277 140 372 257 163 201 174 222
181 340 6 90 6 90 -7 35 -7 -30 -16 -61 -20 -67 -5 -7 -10 -22 -12 -34 -5 -23
-23 -49 -36 -49 -4 0 -10 10 -12 23 -3 12 -5 7 -4 -13 1 -20 -5 -45 -13 -57
-14 -19 -15 -16 -15 38 -1 32 3 55 7 53 4 -3 8 4 8 15 0 10 -4 21 -9 23 -5 2
-12 27 -15 56 -4 34 -2 51 4 47 6 -4 10 9 9 32 0 35 -1 36 -11 16 -6 -13 -17
-23 -24 -23 -10 0 -8 12 7 46 11 26 17 49 14 52 -3 4 -8 -4 -12 -16 -3 -12 -8
-22 -12 -22 -3 0 -18 -11 -33 -25 -15 -14 -33 -22 -41 -19 -8 3 -17 -2 -20
-10 -9 -23 -30 -20 -22 4 3 10 -1 32 -10 47 l-16 28 6 -27 c4 -21 1 -28 -10
-28 -8 0 -15 9 -15 19 0 11 -9 22 -19 26 -12 4 -18 12 -14 21 5 13 -7 18 -35
15 -7 -1 -15 6 -19 16 -4 10 -15 27 -25 37 -10 11 -18 24 -18 28 0 5 -9 29
-21 54 -11 25 -19 53 -18 62 1 9 -1 24 -4 32 -3 8 -7 26 -9 40 -2 14 -7 23
-11 20 -4 -3 -17 10 -28 28 -12 17 -25 32 -30 32 -17 0 -9 18 10 23 17 4 18
10 11 43 -5 21 -6 42 -4 46 3 5 -1 20 -10 33 -9 13 -16 33 -16 45 0 11 -7 20
-16 20 -8 0 -22 16 -30 35 -16 39 -39 54 -56 37 -8 -8 -15 -7 -24 1 -34 30
-44 37 -55 37 -7 0 -21 8 -31 17 -18 16 -18 16 -12 -3z m112 -213 c24 -13 24
-15 8 -27 -10 -7 -16 -18 -14 -25 3 -8 9 -6 22 6 12 13 20 15 28 7 8 -8 4 -14
-15 -23 -28 -13 -36 -29 -14 -29 6 0 23 6 37 13 21 11 28 11 38 1 6 -7 8 -15
3 -19 -5 -3 -12 1 -14 7 -4 10 -7 10 -15 0 -9 -13 -109 -11 -143 3 -13 5 -16
1 -13 -22 2 -15 1 -22 -2 -15 -3 6 -10 12 -15 12 -16 0 -49 34 -49 51 0 31 31
79 56 85 13 3 21 11 18 16 -3 5 8 1 26 -9 18 -10 44 -24 58 -32z m62 -131 c0
-5 -4 -10 -9 -10 -6 0 -13 5 -16 10 -3 6 1 10 9 10 9 0 16 -4 16 -10z m-95
-20 c0 -7 -6 -15 -12 -17 -8 -3 -13 4 -13 17 0 13 5 20 13 18 6 -3 12 -11 12
-18z m30 -30 c3 -5 2 -10 -4 -10 -5 0 -13 5 -16 10 -3 6 -2 10 4 10 5 0 13 -4
16 -10z m15 -130 c-11 -7 -11 -10 -2 -10 7 0 11 -4 8 -9 -3 -5 7 -11 23 -14
29 -6 30 -10 16 -79 -6 -34 -55 -85 -55 -58 0 5 -11 10 -24 10 -16 0 -27 7
-31 20 -3 11 -12 20 -18 20 -16 0 -50 40 -42 48 19 20 112 80 125 81 13 1 13
0 0 -9z m-10 -261 c0 -18 -2 -20 -15 -9 -13 11 -13 15 -3 21 18 12 18 12 18
-12z m0 -105 c0 -14 -12 -19 -23 -8 -9 9 4 35 14 28 5 -3 9 -12 9 -20z m-50 0
c0 -8 -5 -12 -10 -9 -6 4 -8 11 -5 16 9 14 15 11 15 -7z"/>
<path d="M2098 2683 c7 -3 16 -2 19 1 4 3 -2 6 -13 5 -11 0 -14 -3 -6 -6z"/>
<path d="M1667 2801 c1 -2 -4 -16 -12 -32 -30 -57 -12 -80 23 -31 19 26 19 29
4 47 -10 11 -16 18 -15 16z"/>
<path d="M2385 2620 c-3 -5 -1 -10 4 -10 6 0 11 5 11 10 0 6 -2 10 -4 10 -3 0
-8 -4 -11 -10z"/>
<path d="M2919 2374 c0 -27 -1 -70 -2 -96 -1 -25 1 -44 5 -42 9 6 14 -10 51
-206 19 -101 32 -198 31 -230 -2 -30 -3 -68 -3 -83 -1 -16 -5 -25 -11 -22 -5
3 -21 -12 -35 -34 -27 -43 -31 -61 -15 -61 6 0 10 5 10 12 0 6 3 9 6 6 13 -13
-37 -80 -106 -143 -125 -114 -163 -149 -225 -208 -38 -37 -76 -67 -82 -67 -7
0 -13 -4 -13 -8 0 -5 -34 -23 -75 -41 -81 -36 -121 -68 -73 -59 15 3 25 1 22
-3 -19 -31 87 12 114 45 9 12 37 30 62 40 25 10 52 23 60 29 8 7 5 0 -5 -14
-11 -15 -23 -25 -27 -23 -4 3 -16 -1 -27 -7 -16 -11 -17 -14 -4 -27 7 -8 17
-11 21 -8 3 4 0 12 -8 17 -12 8 -11 9 5 7 11 -2 20 -8 20 -15 0 -6 3 -15 8
-19 4 -4 7 3 7 15 0 12 4 20 9 16 5 -3 13 -1 16 5 4 6 15 8 24 5 10 -3 24 1
30 9 7 8 19 12 27 9 8 -3 14 0 14 6 0 6 6 11 13 11 8 0 22 9 32 20 10 11 35
25 56 32 21 6 36 15 32 20 -3 6 4 5 15 -1 12 -6 24 -17 28 -24 5 -9 4 -9 -7 0
-20 19 -33 16 -18 -4 7 -10 10 -15 6 -12 -5 4 -19 -3 -31 -16 -13 -13 -83 -53
-157 -90 -139 -69 -219 -92 -219 -62 0 9 11 24 25 35 40 31 29 34 -25 7 -27
-14 -60 -25 -72 -25 l-23 -1 25 -21 c14 -11 24 -25 23 -29 -2 -5 3 -9 10 -9
44 -1 -193 -80 -358 -120 -153 -36 -234 -47 -420 -57 -82 -4 -126 -9 -97 -11
28 -2 52 -7 52 -12 0 -5 55 -11 123 -13 l122 -3 -138 -2 c-373 -6 -667 108
-752 290 -21 44 -25 68 -24 138 l1 85 12 -53 c8 -29 16 -55 19 -58 5 -5 27 84
27 111 0 7 7 21 16 30 13 13 19 13 32 3 13 -11 15 -10 9 4 -5 14 5 20 51 35
57 18 57 18 57 58 0 34 -3 40 -20 37 -11 -2 -26 -4 -32 -4 -7 -1 -13 -8 -13
-16 0 -9 -6 -12 -16 -8 -8 3 -12 2 -9 -4 3 -6 -3 -10 -14 -10 -24 0 -33 11
-21 29 4 8 17 12 29 8 12 -3 21 -1 21 4 0 5 6 17 14 26 88 109 118 143 126
138 5 -3 11 4 15 15 3 11 13 20 22 20 29 0 82 41 120 93 20 29 42 56 48 60 6
5 3 7 -7 3 -10 -3 -18 -1 -18 5 0 6 9 13 20 16 10 3 22 13 25 22 3 9 22 25 42
35 21 10 45 22 53 26 8 4 18 22 21 40 6 30 3 38 -43 84 -28 28 -61 64 -73 80
l-23 29 -62 -32 c-34 -18 -90 -50 -124 -73 -67 -45 -266 -241 -266 -262 0 -8
-7 -17 -16 -20 -8 -3 -13 -10 -9 -15 3 -5 1 -13 -5 -16 -17 -10 -78 -139 -82
-171 -3 -30 -3 -30 58 -33 17 -1 20 -6 16 -26 -4 -25 -32 -36 -32 -12 0 6 -5
4 -11 -6 -7 -12 -19 -16 -44 -13 -28 4 -33 1 -32 -15 1 -20 23 -33 38 -23 5 3
6 11 3 17 -4 7 1 5 11 -4 36 -34 -3 -101 -49 -83 -18 7 -18 6 -16 -81 1 -47 5
-63 20 -74 22 -15 26 -36 8 -47 -7 -5 -8 -3 -3 6 5 8 4 11 -3 6 -6 -4 -9 -12
-6 -19 2 -7 -11 -28 -31 -47 -19 -19 -35 -30 -35 -26 0 5 11 19 25 32 14 13
25 29 25 36 -1 8 -4 7 -10 -3 -5 -9 -21 -20 -35 -23 -16 -4 -23 -11 -19 -18 5
-8 2 -9 -10 -5 -9 4 -15 3 -12 -2 3 -4 -13 -18 -34 -30 -22 -12 -40 -26 -40
-32 0 -5 -5 -9 -11 -9 -12 0 -45 -24 -112 -80 l-41 -35 29 40 c17 22 37 45 45
52 8 7 10 13 4 13 -17 0 -128 -110 -157 -157 -73 -116 -106 -348 -71 -491 7
-25 6 -26 -10 -13 -11 9 -15 23 -12 35 3 12 1 28 -4 36 -7 11 -10 8 -11 -15
-2 -58 -6 -75 -22 -93 -9 -10 -17 -22 -17 -26 0 -7 -45 -70 -67 -93 -6 -7 -16
-13 -22 -13 -6 0 -11 -7 -11 -15 0 -8 -12 -26 -27 -40 -25 -22 -26 -27 -14
-46 11 -18 11 -23 -1 -30 -25 -16 -46 -3 -58 37 l-8 29 -1 -32 c-1 -21 5 -36
17 -42 9 -6 12 -11 6 -11 -13 0 -38 28 -49 55 -8 19 -8 19 -13 1 -2 -10 -1
-38 3 -61 l6 -43 247 -1 247 -1 18 56 c17 51 17 57 3 73 -23 25 -21 61 3 61
11 0 23 -5 26 -10 3 -6 17 -7 31 -4 24 6 24 5 25 -62 1 -38 1 -77 0 -86 -2
-12 4 -15 20 -11 15 4 20 3 15 -5 -5 -9 215 -12 901 -11 673 1 891 4 843 12
-36 6 -56 12 -45 15 24 5 45 22 26 22 -7 0 -9 5 -5 12 4 7 3 8 -5 4 -6 -4 -8
-13 -5 -19 4 -7 4 -9 -1 -5 -4 4 -17 3 -29 -3 -20 -10 -20 -10 -2 5 15 12 16
16 5 16 -8 0 -21 -6 -27 -12 -10 -10 -15 -10 -22 2 -5 8 -6 18 -3 24 3 5 1 6
-5 2 -7 -4 -12 -1 -12 8 0 17 12 19 48 9 18 -4 20 -8 10 -14 -10 -7 -10 -9 2
-9 22 0 33 11 55 52 10 21 22 33 26 27 3 -6 9 -2 12 10 3 13 1 19 -5 15 -6 -4
-6 1 1 13 17 34 110 117 139 126 15 5 88 11 163 14 161 7 201 -3 286 -69 l55
-42 74 37 c98 48 119 48 68 -1 -21 -21 -52 -48 -68 -60 l-29 -22 32 -68 c17
-38 31 -76 31 -85 0 -16 70 -17 960 -17 l960 0 0 194 c0 107 -4 197 -9 200 -5
4 -11 1 -13 -5 -5 -16 -43 4 -52 27 -8 22 -4 25 35 26 l34 1 -35 15 c-33 13
-34 15 -15 28 10 8 26 14 36 14 20 0 -52 81 -89 100 -13 6 -21 17 -18 25 3 8
0 16 -7 19 -9 3 -8 5 1 5 7 1 10 6 7 11 -5 8 -11 8 -19 1 -9 -8 -16 -5 -25 12
-7 13 -24 31 -39 41 l-27 17 28 -6 c26 -5 27 -4 17 15 -9 17 -8 20 10 20 12 0
19 3 16 8 -2 4 13 7 35 7 32 0 45 -7 73 -39 20 -21 40 -35 45 -32 29 18 -31
116 -71 116 -12 0 -16 4 -12 12 4 7 3 8 -5 4 -18 -11 -193 14 -209 30 -11 11
-11 14 0 15 7 1 2 5 -12 9 -25 8 -24 8 5 9 21 1 26 4 16 10 -7 5 -30 7 -51 4
-29 -4 -38 -1 -43 12 -6 14 -2 16 26 11 l32 -5 -35 11 c-19 5 -49 17 -67 24
-17 8 -35 14 -41 14 -5 0 -12 7 -16 15 -3 9 -12 12 -22 8 -11 -4 -15 -3 -11 4
4 6 1 13 -5 16 -7 3 4 3 26 1 23 -1 44 3 53 11 11 12 6 14 -34 18 -40 3 -36 4
20 5 40 1 82 -4 102 -12 64 -27 37 4 -29 34 -80 37 -102 38 -197 16 l-75 -18
-70 27 c-38 15 -73 32 -79 38 -7 7 -6 8 3 3 6 -4 12 -3 12 2 0 17 54 32 98 29
23 -2 42 -1 42 2 -1 15 -17 28 -32 25 -10 -1 -20 2 -24 7 -3 5 -19 9 -35 9
-18 0 -28 4 -24 10 3 6 1 10 -4 10 -6 0 -11 -4 -11 -10 0 -5 -5 -10 -11 -10
-5 0 -7 5 -4 11 5 7 -7 8 -38 4 -25 -4 -58 -4 -74 -1 -32 7 -86 49 -76 60 3 3
-2 6 -12 6 -13 0 -15 3 -7 13 9 10 6 18 -11 32 -20 18 -21 20 -3 23 10 2 23
-1 29 -7 6 -6 14 -11 17 -11 7 0 -3 127 -12 135 -9 9 -40 9 -63 -1 -19 -8 -19
-8 0 13 11 11 27 23 35 27 8 3 1 5 -17 3 -28 -3 -33 0 -36 22 -4 24 -4 24 -6
-4 -1 -22 -8 -33 -27 -42 -23 -11 -27 -9 -43 17 -9 16 -23 58 -31 94 -7 36
-17 63 -21 60 -4 -2 -10 4 -13 14 -10 30 -52 82 -61 74 -5 -4 -5 -1 -1 5 4 7
-4 36 -18 65 -13 29 -27 73 -31 98 -10 61 -30 93 -81 125 -34 22 -47 38 -60
77 -13 40 -28 59 -76 96 -148 117 -304 168 -565 188 l-93 7 -1 -49z m242 -300
c51 -20 75 -25 122 -21 32 3 63 10 70 16 7 5 18 6 25 2 9 -5 -3 -14 -35 -25
-26 -10 -58 -22 -71 -28 -18 -9 -26 -8 -45 10 -12 11 -51 32 -87 46 -36 13
-60 25 -54 25 5 1 39 -11 75 -25z m258 -54 c-20 -13 -42 0 -28 16 6 8 15 11
20 8 5 -3 10 1 10 8 1 7 3 5 6 -6 3 -10 -1 -22 -8 -26z m-1979 -206 c0 -16
-74 -104 -88 -106 -10 0 -23 -2 -31 -2 -8 -1 -16 -7 -19 -14 -6 -18 -26 -15
-40 8 -10 16 -10 20 2 20 8 0 17 -6 20 -12 3 -7 4 -5 3 6 -1 13 13 27 52 48
29 16 60 36 68 44 15 14 33 19 33 8z m-186 -133 c-4 -3 -9 -1 -11 6 -2 7 -12
9 -21 6 -14 -4 -15 -3 -2 5 15 11 47 -5 34 -17z m-267 -193 c-3 -8 -6 -5 -6 6
-1 11 2 17 5 13 3 -3 4 -12 1 -19z m2175 -66 c-2 -7 -11 -11 -18 -8 -8 3 -13
2 -13 -2 4 -22 -3 -23 -21 -2 -11 13 -20 18 -20 11 0 -7 -5 -9 -11 -5 -19 11
12 24 52 21 25 -1 35 -6 31 -15z m-87 -30 c-3 -3 -11 0 -18 7 -9 10 -8 11 6 5
10 -3 15 -9 12 -12z m157 -15 c-17 -18 -41 -33 -51 -33 -15 0 -17 3 -9 14 9
10 13 11 19 0 9 -13 10 -11 13 15 0 6 6 12 13 12 7 0 18 6 25 13 6 6 14 12 17
12 3 0 -9 -15 -27 -33z m-2172 19 c0 -9 -30 -14 -35 -6 -4 6 3 10 14 10 12 0
21 -2 21 -4z m2094 -83 c-9 -7 -21 -10 -26 -7 -14 9 -1 20 22 20 20 0 20 -1 4
-13z m-304 -43 c0 -5 -5 -10 -11 -10 -5 0 -7 5 -4 10 3 6 8 10 11 10 2 0 4 -4
4 -10z m125 -10 c-3 -5 -12 -10 -18 -10 -7 0 -6 4 3 10 19 12 23 12 15 0z
m175 -4 c0 -2 -12 -11 -27 -20 l-28 -17 24 20 c23 21 31 25 31 17z m-115 -35
c-20 -18 -179 -121 -187 -121 -4 0 -29 -10 -53 -21 -25 -12 -48 -19 -51 -17
-2 3 20 15 50 28 30 12 62 30 72 41 9 10 21 16 27 12 5 -3 15 0 21 8 6 8 36
29 66 47 56 32 71 39 55 23z m-2295 -191 c-6 -10 -15 -22 -21 -26 -6 -3 -4 5
5 18 9 14 13 28 9 33 -5 4 -2 5 5 1 9 -5 9 -13 2 -26z m1951 -5 c-18 -8 -36
-15 -40 -15 -13 1 45 29 59 29 8 0 0 -6 -19 -14z m-1998 -17 c-6 -7 -13 -22
-16 -33 -7 -19 -6 -19 7 -2 18 23 27 21 22 -5 -3 -13 -5 -27 -5 -31 -1 -5 -5
-6 -10 -3 -5 3 -12 -10 -15 -29 -5 -22 -11 -33 -18 -29 -6 4 -8 3 -5 -4 4 -5
-9 -65 -28 -132 -19 -67 -35 -132 -35 -146 0 -29 20 -32 27 -4 3 11 9 20 13
20 5 0 6 9 3 20 -3 11 0 20 6 20 5 0 8 8 5 18 -5 14 -4 14 6 -2 9 -14 10 -20
1 -26 -7 -4 -11 -11 -10 -16 4 -27 -16 -54 -47 -63 -19 -5 -67 -40 -112 -80
-42 -39 -80 -71 -85 -71 -31 0 -27 139 8 276 15 55 79 204 88 204 3 0 -6 -26
-18 -57 -13 -32 -26 -71 -30 -88 -4 -23 -2 -21 11 10 25 64 56 119 76 138 10
10 18 22 18 27 0 5 9 14 21 20 20 11 20 11 -1 -32 l-22 -43 42 45 c23 25 46
44 51 43 5 -2 9 1 9 7 0 5 10 21 22 35 22 25 38 35 21 13z m263 -19 c0 -11 -6
-14 -20 -11 -11 3 -17 1 -13 -5 3 -5 0 -10 -7 -10 -9 0 -10 6 -3 22 12 24 43
28 43 4z m-60 -59 c0 -8 -4 -20 -8 -26 -10 -14 -50 -6 -42 8 3 5 12 4 20 -3 9
-7 14 -8 14 -1 0 6 -4 14 -10 17 -17 10 -11 27 8 23 9 -2 17 -10 18 -18z
m1519 -9 c-6 -5 -23 -12 -40 -16 l-30 -6 30 15 c35 17 53 20 40 7z m-85 -31
c-8 -5 -19 -10 -25 -10 -5 0 -3 5 5 10 8 5 20 10 25 10 6 0 3 -5 -5 -10z
m-1473 -6 c-3 -3 -12 -4 -19 -1 -8 3 -5 6 6 6 11 1 17 -2 13 -5z m1420 -10
c-3 -3 -12 -4 -19 -1 -8 3 -5 6 6 6 11 1 17 -2 13 -5z m-1296 -59 c5 4 6 -1 3
-9 -3 -9 -1 -16 6 -16 7 0 6 -5 -4 -15 -20 -20 -26 -19 -21 5 5 27 -3 25 -15
-2 l-9 -23 0 23 c-1 24 21 57 27 41 2 -5 8 -7 13 -4z m972 -12 c-7 -2 -19 -2
-25 0 -7 3 -2 5 12 5 14 0 19 -2 13 -5z m-1189 -19 c10 -25 7 -44 -8 -60 -35
-34 -57 -1 -30 45 21 35 29 38 38 15z m371 -59 l20 -17 -20 8 c-11 4 -30 8
-42 8 -14 1 -18 5 -12 12 5 6 5 14 1 19 -11 12 31 -12 53 -30z m-465 -35 c12
-23 12 -24 -3 -11 -10 7 -17 20 -17 29 0 18 3 16 20 -18z m60 2 c-11 -2 -20
-10 -20 -17 0 -8 -4 -16 -9 -20 -6 -3 -8 7 -6 22 2 16 4 31 4 35 1 3 12 1 26
-5 23 -11 23 -12 5 -15z m480 -18 c0 3 20 -4 45 -15 25 -11 65 -21 89 -22 26
-1 41 -6 36 -11 -11 -11 -160 23 -160 37 0 6 -3 8 -6 4 -7 -6 -64 19 -64 29 0
2 14 -2 30 -11 17 -9 30 -13 30 -11z m25 16 c3 -6 -1 -7 -9 -4 -18 7 -21 14
-7 14 6 0 13 -4 16 -10z m-84 -17 c13 -16 12 -17 -3 -4 -10 7 -18 15 -18 17 0
8 8 3 21 -13z m134 -3 c13 -6 15 -9 5 -9 -8 0 -22 4 -30 9 -18 12 -2 12 25 0z
m375 -83 c0 -4 8 -3 18 2 11 6 33 6 55 2 20 -5 39 -6 44 -2 4 3 0 -5 -9 -19
-14 -23 -22 -25 -102 -28 -78 -3 -86 -1 -86 16 0 10 4 22 10 28 11 11 70 12
70 1z m-650 -94 c0 -8 4 -12 9 -9 5 3 11 -3 14 -14 3 -11 2 -18 -2 -16 -4 3
-13 0 -21 -6 -12 -8 -12 -9 2 -4 10 3 20 0 24 -6 4 -7 9 -6 14 2 6 9 13 9 26
2 18 -10 18 -11 2 -17 -13 -5 -16 -14 -13 -34 4 -17 3 -20 -3 -8 -7 16 -8 16
-24 -2 -9 -11 -14 -22 -11 -25 4 -3 2 -6 -3 -6 -7 0 -85 59 -113 86 -2 2 8 8
23 13 32 13 34 19 4 16 -13 -1 -29 -3 -36 -4 -7 0 -11 -4 -9 -8 3 -5 -5 -8
-16 -8 -12 -1 -33 -5 -47 -9 -22 -8 -20 -4 14 30 36 37 42 39 102 41 50 1 64
-2 64 -14z m330 2 c0 -2 -9 -3 -19 -2 -11 0 -18 5 -15 9 4 6 34 0 34 -7z m65
-5 c-3 -5 -12 -10 -18 -10 -7 0 -6 4 3 10 19 12 23 12 15 0z m265 -9 c0 -6 -4
-13 -10 -16 -5 -3 -10 1 -10 9 0 9 5 16 10 16 6 0 10 -4 10 -9z m-400 -33 c0
-12 -6 -9 -26 13 -19 22 -19 22 4 8 12 -8 22 -17 22 -21z m75 22 c-3 -5 -14
-10 -23 -9 -14 0 -13 2 3 9 27 11 27 11 20 0z m306 -31 c8 -17 8 -20 -1 -14
-9 5 -10 1 -5 -14 4 -15 3 -21 -7 -19 -7 2 -12 -3 -10 -11 3 -12 0 -12 -12 -2
-8 7 -12 20 -9 28 5 12 3 14 -7 8 -9 -5 -11 -4 -6 4 4 6 12 9 17 6 5 -4 9 -1
9 5 0 6 5 8 12 4 8 -5 9 -2 5 9 -9 24 0 21 14 -4z m-445 -28 c-3 -5 2 -8 11
-7 30 2 26 -24 -6 -30 -17 -4 -28 -10 -25 -15 3 -5 1 -9 -4 -9 -12 0 -22 38
-15 56 3 8 14 14 25 14 10 0 17 -4 14 -9z m-463 -21 c-3 -11 -11 -20 -18 -20
-7 0 -16 -7 -19 -15 -4 -13 -10 -14 -26 -5 -29 15 -25 39 8 46 15 3 32 7 37 9
20 7 23 5 18 -15z m841 11 c3 -5 -1 -11 -9 -14 -9 -4 -12 -1 -8 9 6 16 10 17
17 5z m-551 -96 c-4 -5 4 -1 16 9 18 17 21 17 15 3 -5 -13 0 -17 20 -17 15 0
29 7 32 15 4 8 10 12 15 9 13 -8 1 -24 -28 -35 -18 -6 -23 -15 -21 -32 2 -12
9 -21 16 -19 8 1 11 -2 7 -8 -3 -6 -11 -8 -16 -4 -6 3 -22 -5 -36 -17 -13 -13
-26 -23 -29 -21 -2 1 -10 2 -16 2 -9 0 -8 -4 2 -10 13 -8 12 -10 -2 -10 -20 0
-24 -15 -6 -26 7 -5 8 -3 3 6 -5 9 -4 11 4 6 23 -15 -57 -93 -84 -82 -9 3 -15
0 -15 -9 0 -8 -9 -15 -20 -15 -24 0 -27 28 -4 37 8 3 13 12 9 20 -3 11 -1 13
10 9 8 -3 15 -1 15 4 0 13 -37 13 -45 0 -3 -6 -11 -10 -16 -10 -6 0 -8 4 -5 9
3 5 0 11 -8 14 -7 3 -12 17 -10 34 1 15 2 38 3 51 1 18 6 23 24 21 12 -2 50
11 83 29 34 17 65 28 69 24 4 -4 6 -2 5 3 -1 6 -2 19 -1 30 1 16 3 17 10 5 6
-8 7 -19 4 -25z m2287 15 c0 -13 -20 -13 -40 0 -12 8 -9 10 13 10 15 0 27 -4
27 -10z m-1683 -55 c-1 0 -33 2 -72 4 l-70 5 65 6 c37 3 68 1 72 -5 4 -5 6
-10 5 -10z m-967 -4 c0 -5 -7 -11 -14 -14 -10 -4 -13 -1 -9 9 6 15 23 19 23 5z
m-505 -212 c4 -6 -1 -16 -11 -24 -13 -9 -21 -10 -26 -2 -5 8 -11 7 -21 -1 -12
-10 -16 -9 -21 3 -3 9 -2 13 4 10 6 -3 20 1 32 9 26 19 35 20 43 5z"/>
<path d="M970 496 c0 -2 7 -6 15 -10 8 -3 15 -1 15 4 0 6 -7 10 -15 10 -8 0
-15 -2 -15 -4z"/>
<path d="M975 450 c1 -16 4 -32 7 -35 3 -3 5 8 4 24 -1 16 -4 32 -7 35 -3 3
-5 -8 -4 -24z"/>
<path d="M1616 403 c-6 -14 -5 -15 5 -6 7 7 10 15 7 18 -3 3 -9 -2 -12 -12z"/>
<path d="M860 186 c0 -2 7 -7 16 -10 8 -3 12 -2 9 4 -6 10 -25 14 -25 6z"/>
<path d="M140 40 c-9 -6 -10 -10 -3 -10 6 0 15 5 18 10 8 12 4 12 -15 0z"/>
<path d="M1670 1920 c0 -5 5 -10 11 -10 5 0 7 5 4 10 -3 6 -8 10 -11 10 -2 0
-4 -4 -4 -10z"/>
<path d="M1580 1881 c12 -9 11 -11 -10 -11 -30 0 -57 -16 -47 -26 11 -11 49
-13 75 -3 21 8 32 39 13 39 -5 0 -18 3 -28 6 -15 5 -15 4 -3 -5z"/>
<path d="M1831 1874 c0 -11 3 -14 6 -6 3 7 2 16 -1 19 -3 4 -6 -2 -5 -13z"/>
<path d="M1624 1829 c-10 -12 -43 -39 -71 -61 -84 -62 -183 -159 -203 -199
-11 -20 -17 -39 -15 -41 3 -2 -2 -37 -10 -77 -24 -113 -24 -127 1 -207 31 -95
44 -121 86 -161 64 -61 248 -124 269 -92 6 9 4 18 -6 25 -8 6 -15 16 -15 23 0
6 -4 11 -9 11 -8 0 -17 21 -26 58 -2 7 -11 24 -20 38 -19 29 -75 195 -75 221
0 10 9 35 20 56 24 44 24 42 4 62 -15 15 -15 19 0 53 9 20 20 70 25 111 6 47
20 96 40 135 16 33 29 62 27 63 -2 2 -11 -7 -22 -18z"/>
<path d="M1636 1760 c-19 -49 -22 -120 -3 -120 7 0 13 -17 14 -46 1 -27 9 -54
18 -64 16 -17 112 -46 122 -36 2 2 -11 35 -30 72 -19 38 -47 103 -62 144 -15
41 -31 79 -35 83 -4 5 -15 -10 -24 -33z"/>
<path d="M2900 1591 c0 -5 -7 -17 -16 -26 -9 -9 -13 -19 -9 -23 4 -4 10 -1 12
6 3 6 11 12 18 12 7 0 16 7 19 16 9 22 8 24 -9 24 -8 0 -15 -4 -15 -9z"/>
<path d="M1844 1364 c-8 -31 2 -110 21 -161 7 -21 14 -34 14 -28 1 5 9 -4 19
-21 27 -48 51 -78 57 -72 4 3 -9 30 -29 60 -44 70 -59 126 -50 194 5 46 4 54
-10 54 -8 0 -19 -11 -22 -26z"/>
<path d="M1828 1218 c-3 -16 -2 -28 1 -28 7 0 10 -28 12 -108 2 -43 4 -50 16
-41 7 7 12 17 10 23 -2 6 0 23 4 38 5 19 4 27 -4 25 -7 -1 -13 9 -14 23 -1 14
-6 41 -11 60 -8 35 -8 35 -14 8z"/>
<path d="M2870 1230 c-9 -6 -10 -10 -3 -10 6 0 15 5 18 10 8 12 4 12 -15 0z"/>
<path d="M1080 1161 c0 -6 4 -13 10 -16 6 -3 7 1 4 9 -7 18 -14 21 -14 7z"/>
<path d="M4370 1160 c-12 -8 -9 -9 12 -8 15 1 24 6 22 10 -7 10 -16 10 -34 -2z"/>
<path d="M2300 1075 c-14 -8 -19 -14 -12 -15 7 0 11 -4 8 -9 -4 -5 4 -6 16 -3
20 5 20 7 5 10 -18 4 -18 4 0 18 23 17 15 17 -17 -1z"/>
<path d="M1973 1053 c2 -18 -1 -35 -7 -37 -6 -2 -4 -5 4 -5 23 -1 47 18 34 27
-6 4 -16 16 -23 27 -11 18 -12 17 -8 -12z"/>
<path d="M2348 1073 c6 -2 18 -2 25 0 6 3 1 5 -13 5 -14 0 -19 -2 -12 -5z"/>
<path d="M2225 1044 c-46 -17 -67 -34 -42 -34 9 0 17 5 17 10 0 6 7 10 15 10
8 0 15 -4 15 -10 0 -10 -4 -11 -70 -15 -19 -1 -73 -14 -120 -29 -47 -15 -95
-24 -107 -21 -14 3 -23 1 -23 -6 0 -7 -3 -9 -7 -6 -3 4 -17 0 -30 -8 -22 -15
-23 -14 -23 10 0 15 -4 24 -10 20 -6 -4 -8 -11 -5 -16 3 -5 -1 -6 -9 -3 -8 3
-19 -3 -25 -14 -12 -22 -72 -36 -83 -18 -6 8 -8 8 -8 -1 0 -7 9 -17 20 -23 15
-8 20 -8 20 2 0 10 2 10 9 0 5 -9 20 -12 40 -9 27 5 30 3 20 -9 -9 -11 -8 -14
4 -14 9 0 20 7 24 15 8 14 99 24 233 26 28 1 31 3 15 9 -17 6 -14 9 17 15 20
4 42 4 49 -1 8 -4 10 -3 5 4 -5 8 1 12 15 12 12 0 19 3 16 7 -4 3 1 11 10 18
13 10 11 11 -15 7 -18 -2 -32 0 -32 6 0 6 8 8 19 5 10 -3 22 0 26 7 5 8 11 7
23 -2 13 -11 15 -10 9 5 -4 12 -1 17 10 17 14 0 14 2 -3 15 -17 13 -17 14 -2
15 9 0 20 5 23 10 7 12 10 12 -40 -6z"/>
<path d="M2090 1010 c-8 -5 -10 -10 -5 -10 6 0 17 5 25 10 8 5 11 10 5 10 -5
0 -17 -5 -25 -10z"/>
<path d="M2005 985 c-22 -7 -31 -13 -20 -13 11 0 36 6 55 13 45 17 17 18 -35
0z"/>
<path d="M1618 930 c-42 -22 -70 -25 -99 -10 -16 9 -19 7 -19 -9 0 -14 5 -19
15 -15 8 4 15 2 15 -3 0 -12 45 -33 70 -33 19 0 64 62 58 80 -2 6 -19 1 -40
-10z"/>
<path d="M1458 843 c7 -3 16 -2 19 1 4 3 -2 6 -13 5 -11 0 -14 -3 -6 -6z"/>
<path d="M1498 833 c6 -2 18 -2 25 0 6 3 1 5 -13 5 -14 0 -19 -2 -12 -5z"/>
<path d="M4948 743 c7 -3 16 -2 19 1 4 3 -2 6 -13 5 -11 0 -14 -3 -6 -6z"/>
<path d="M92 410 c0 -30 5 -89 12 -130 17 -97 18 -44 1 85 -10 83 -13 90 -13
45z"/>
<path d="M3155 238 c-67 -34 -77 -42 -60 -49 17 -7 15 -8 -8 -6 -24 2 -31 -4
-43 -32 -14 -33 -14 -34 3 -19 10 8 37 25 60 38 23 13 39 28 36 33 -3 6 -1 7
6 3 14 -9 43 12 35 25 -3 5 1 6 9 4 12 -5 55 31 46 39 -2 2 -40 -14 -84 -36z"/>
<path d="M36 165 c-3 -9 -6 -22 -5 -28 0 -7 5 -1 10 12 5 13 8 26 5 28 -2 2
-6 -3 -10 -12z"/>
<path d="M2950 103 c0 -21 19 -25 42 -9 12 9 18 16 12 16 -5 0 -16 -6 -22 -12
-10 -10 -15 -10 -22 2 -6 9 -10 10 -10 3z"/>
<path d="M2914 83 c4 -7 2 -13 -3 -13 -6 0 -11 -4 -11 -10 0 -5 6 -10 14 -10
15 0 16 24 1 37 -4 4 -5 2 -1 -4z"/>
<path d="M2825 30 c-3 -5 -2 -10 4 -10 5 0 13 5 16 10 3 6 2 10 -4 10 -5 0
-13 -4 -16 -10z"/>
</g>
</svg>
